<svg width="1916" height="967" viewBox="0 0 1916 967" fill="none" xmlns="http://www.w3.org/2000/svg">
<mask id="mask0_98_2774" style="mask-type:alpha" maskUnits="userSpaceOnUse" x="0" y="0" width="1916" height="967">
<rect width="1916" height="967" fill="#D9D9D9"/>
</mask>
<g mask="url(#mask0_98_2774)">
<g opacity="0.11">
<line x1="19.5002" y1="-97.5088" x2="19.5002" y2="1064.64" stroke="#005308"/>
<line x1="40.5002" y1="-97.5088" x2="40.5002" y2="1064.64" stroke="#005308"/>
<line x1="63.5002" y1="-97.5088" x2="63.5002" y2="1064.64" stroke="#005308"/>
<line x1="86.5002" y1="-92.6367" x2="86.5002" y2="1069.51" stroke="#005308"/>
<line x1="107.5" y1="-92.6367" x2="107.5" y2="1069.51" stroke="#005308"/>
<line x1="130.5" y1="-92.6367" x2="130.5" y2="1069.51" stroke="#005308"/>
<line x1="153.5" y1="-102.382" x2="153.5" y2="1059.76" stroke="#005308"/>
<line x1="174.5" y1="-102.382" x2="174.5" y2="1059.76" stroke="#005308"/>
<line x1="197.5" y1="-102.382" x2="197.5" y2="1059.76" stroke="#005308"/>
<line x1="220.5" y1="-97.5088" x2="220.5" y2="1064.64" stroke="#005308"/>
<line x1="241.5" y1="-97.5088" x2="241.5" y2="1064.64" stroke="#005308"/>
<line x1="264.5" y1="-97.5088" x2="264.5" y2="1064.64" stroke="#005308"/>
<line x1="287.5" y1="-87.7637" x2="287.5" y2="1074.38" stroke="#005308"/>
<line x1="308.5" y1="-87.7637" x2="308.5" y2="1074.38" stroke="#005308"/>
<line x1="331.5" y1="-87.7637" x2="331.5" y2="1074.38" stroke="#005308"/>
<line x1="354.5" y1="-82.8906" x2="354.5" y2="1079.25" stroke="#005308"/>
<line x1="375.5" y1="-82.8906" x2="375.5" y2="1079.25" stroke="#005308"/>
<line x1="398.5" y1="-82.8906" x2="398.5" y2="1079.25" stroke="#005308"/>
<line x1="421.5" y1="-92.6367" x2="421.5" y2="1069.51" stroke="#005308"/>
<line x1="442.5" y1="-92.6367" x2="442.5" y2="1069.51" stroke="#005308"/>
<line x1="465.5" y1="-92.6367" x2="465.5" y2="1069.51" stroke="#005308"/>
<line x1="488.5" y1="-87.7637" x2="488.5" y2="1074.38" stroke="#005308"/>
<line x1="509.5" y1="-87.7637" x2="509.5" y2="1074.38" stroke="#005308"/>
<line x1="532.5" y1="-87.7637" x2="532.5" y2="1074.38" stroke="#005308"/>
<line x1="555.5" y1="-87.7637" x2="555.5" y2="1074.38" stroke="#005308"/>
<line x1="576.5" y1="-87.7637" x2="576.5" y2="1074.38" stroke="#005308"/>
<line x1="599.5" y1="-87.7637" x2="599.5" y2="1074.38" stroke="#005308"/>
<line x1="622.5" y1="-82.8906" x2="622.5" y2="1079.25" stroke="#005308"/>
<line x1="643.5" y1="-82.8906" x2="643.5" y2="1079.25" stroke="#005308"/>
<line x1="666.5" y1="-82.8906" x2="666.5" y2="1079.25" stroke="#005308"/>
<line x1="689.5" y1="-92.6367" x2="689.5" y2="1069.51" stroke="#005308"/>
<line x1="710.5" y1="-92.6367" x2="710.5" y2="1069.51" stroke="#005308"/>
<line x1="733.5" y1="-92.6367" x2="733.5" y2="1069.51" stroke="#005308"/>
<line x1="756.5" y1="-117" x2="756.5" y2="1045.15" stroke="#005308"/>
<line x1="777.5" y1="-117" x2="777.5" y2="1045.15" stroke="#005308"/>
<line x1="800.5" y1="-117" x2="800.5" y2="1045.15" stroke="#005308"/>
<line x1="823.5" y1="-107.255" x2="823.5" y2="1054.89" stroke="#005308"/>
<line x1="844.5" y1="-107.255" x2="844.5" y2="1054.89" stroke="#005308"/>
<line x1="867.5" y1="-107.255" x2="867.5" y2="1054.89" stroke="#005308"/>
<line x1="890.5" y1="-102.382" x2="890.5" y2="1059.76" stroke="#005308"/>
<line x1="911.5" y1="-102.382" x2="911.5" y2="1059.76" stroke="#005308"/>
<line x1="934.5" y1="-102.382" x2="934.5" y2="1059.76" stroke="#005308"/>
<line x1="957.5" y1="-112.127" x2="957.5" y2="1050.02" stroke="#005308"/>
<line x1="978.5" y1="-112.127" x2="978.5" y2="1050.02" stroke="#005308"/>
<line x1="1001.5" y1="-112.127" x2="1001.5" y2="1050.02" stroke="#005308"/>
<line x1="1024.5" y1="-107.255" x2="1024.5" y2="1054.89" stroke="#005308"/>
<line x1="1045.5" y1="-107.255" x2="1045.5" y2="1054.89" stroke="#005308"/>
<line x1="1068.5" y1="-107.255" x2="1068.5" y2="1054.89" stroke="#005308"/>
<line x1="1091.5" y1="-97.5088" x2="1091.5" y2="1064.64" stroke="#005308"/>
<line x1="1112.5" y1="-97.5088" x2="1112.5" y2="1064.64" stroke="#005308"/>
<line x1="1135.5" y1="-97.5088" x2="1135.5" y2="1064.64" stroke="#005308"/>
<line x1="1158.5" y1="-92.6367" x2="1158.5" y2="1069.51" stroke="#005308"/>
<line x1="1179.5" y1="-92.6367" x2="1179.5" y2="1069.51" stroke="#005308"/>
<line x1="1202.5" y1="-92.6367" x2="1202.5" y2="1069.51" stroke="#005308"/>
<line x1="1225.5" y1="-102.382" x2="1225.5" y2="1059.76" stroke="#005308"/>
<line x1="1246.5" y1="-102.382" x2="1246.5" y2="1059.76" stroke="#005308"/>
<line x1="1269.5" y1="-102.382" x2="1269.5" y2="1059.76" stroke="#005308"/>
<line x1="1292.5" y1="-97.5088" x2="1292.5" y2="1064.64" stroke="#005308"/>
<line x1="1313.5" y1="-97.5088" x2="1313.5" y2="1064.64" stroke="#005308"/>
<line x1="1336.5" y1="-97.5088" x2="1336.5" y2="1064.64" stroke="#005308"/>
<line x1="1359.5" y1="-87.7637" x2="1359.5" y2="1074.38" stroke="#005308"/>
<line x1="1380.5" y1="-87.7637" x2="1380.5" y2="1074.38" stroke="#005308"/>
<line x1="1403.5" y1="-87.7637" x2="1403.5" y2="1074.38" stroke="#005308"/>
<line x1="1426.5" y1="-82.8906" x2="1426.5" y2="1079.25" stroke="#005308"/>
<line x1="1447.5" y1="-82.8906" x2="1447.5" y2="1079.25" stroke="#005308"/>
<line x1="1470.5" y1="-82.8906" x2="1470.5" y2="1079.25" stroke="#005308"/>
<line x1="1493.5" y1="-92.6367" x2="1493.5" y2="1069.51" stroke="#005308"/>
<line x1="1514.5" y1="-92.6367" x2="1514.5" y2="1069.51" stroke="#005308"/>
<line x1="1537.5" y1="-92.6367" x2="1537.5" y2="1069.51" stroke="#005308"/>
<line x1="1560.5" y1="-87.7637" x2="1560.5" y2="1074.38" stroke="#005308"/>
<line x1="1581.5" y1="-87.7637" x2="1581.5" y2="1074.38" stroke="#005308"/>
<line x1="1604.5" y1="-87.7637" x2="1604.5" y2="1074.38" stroke="#005308"/>
<line x1="1627.5" y1="-87.7637" x2="1627.5" y2="1074.38" stroke="#005308"/>
<line x1="1648.5" y1="-87.7637" x2="1648.5" y2="1074.38" stroke="#005308"/>
<line x1="1671.5" y1="-87.7637" x2="1671.5" y2="1074.38" stroke="#005308"/>
<line x1="1694.5" y1="-82.8906" x2="1694.5" y2="1079.25" stroke="#005308"/>
<line x1="1715.5" y1="-82.8906" x2="1715.5" y2="1079.25" stroke="#005308"/>
<line x1="1738.5" y1="-82.8906" x2="1738.5" y2="1079.25" stroke="#005308"/>
<line x1="1761.5" y1="-92.6367" x2="1761.5" y2="1069.51" stroke="#005308"/>
<line x1="1782.5" y1="-92.6367" x2="1782.5" y2="1069.51" stroke="#005308"/>
<line x1="1805.5" y1="-92.6367" x2="1805.5" y2="1069.51" stroke="#005308"/>
<line x1="1828.5" y1="-87.7637" x2="1828.5" y2="1074.38" stroke="#005308"/>
<line x1="1849.5" y1="-87.7637" x2="1849.5" y2="1074.38" stroke="#005308"/>
<line x1="1872.5" y1="-87.7637" x2="1872.5" y2="1074.38" stroke="#005308"/>
<line x1="1895.5" y1="-78.0181" x2="1895.5" y2="1084.13" stroke="#005308"/>
<line x1="2078.25" y1="17.5" x2="-376.128" y2="17.4999" stroke="#005308"/>
<line x1="2078.25" y1="38.5" x2="-376.128" y2="38.4999" stroke="#005308"/>
<line x1="2078.25" y1="61.5" x2="-376.128" y2="61.4999" stroke="#005308"/>
<line x1="2078.25" y1="84.5" x2="-376.128" y2="84.4998" stroke="#005308"/>
<line x1="2078.25" y1="105.5" x2="-376.128" y2="105.5" stroke="#005308"/>
<line x1="2078.25" y1="128.5" x2="-376.128" y2="128.5" stroke="#005308"/>
<line x1="2067.96" y1="151.5" x2="-386.419" y2="151.5" stroke="#005308"/>
<line x1="2067.96" y1="172.5" x2="-386.419" y2="172.5" stroke="#005308"/>
<line x1="2067.96" y1="195.5" x2="-386.419" y2="195.5" stroke="#005308"/>
<line x1="2088.55" y1="218.5" x2="-365.837" y2="218.5" stroke="#005308"/>
<line x1="2088.55" y1="239.5" x2="-365.837" y2="239.5" stroke="#005308"/>
<line x1="2088.55" y1="262.5" x2="-365.837" y2="262.5" stroke="#005308"/>
<line x1="2140" y1="285.5" x2="-314.382" y2="285.5" stroke="#005308"/>
<line x1="2140" y1="306.5" x2="-314.382" y2="306.5" stroke="#005308"/>
<line x1="2140" y1="329.5" x2="-314.382" y2="329.5" stroke="#005308"/>
<line x1="2119.42" y1="352.5" x2="-334.964" y2="352.5" stroke="#005308"/>
<line x1="2119.42" y1="373.5" x2="-334.964" y2="373.5" stroke="#005308"/>
<line x1="2119.42" y1="396.5" x2="-334.964" y2="396.5" stroke="#005308"/>
<line x1="2109.13" y1="419.5" x2="-345.255" y2="419.5" stroke="#005308"/>
<line x1="2109.13" y1="440.5" x2="-345.255" y2="440.5" stroke="#005308"/>
<line x1="2109.13" y1="463.5" x2="-345.255" y2="463.5" stroke="#005308"/>
<line x1="2129.71" y1="486.5" x2="-324.673" y2="486.5" stroke="#005308"/>
<line x1="2129.71" y1="507.5" x2="-324.673" y2="507.5" stroke="#005308"/>
<line x1="2129.71" y1="530.5" x2="-324.673" y2="530.5" stroke="#005308"/>
<line x1="2119.42" y1="553.5" x2="-334.964" y2="553.5" stroke="#005308"/>
<line x1="2119.42" y1="574.5" x2="-334.964" y2="574.5" stroke="#005308"/>
<line x1="2119.42" y1="597.5" x2="-334.964" y2="597.5" stroke="#005308"/>
<line x1="2098.84" y1="620.5" x2="-355.546" y2="620.5" stroke="#005308"/>
<line x1="2098.84" y1="641.5" x2="-355.546" y2="641.5" stroke="#005308"/>
<line x1="2098.84" y1="664.5" x2="-355.546" y2="664.5" stroke="#005308"/>
<line x1="2088.55" y1="687.5" x2="-365.837" y2="687.5" stroke="#005308"/>
<line x1="2088.55" y1="708.5" x2="-365.837" y2="708.5" stroke="#005308"/>
<line x1="2088.55" y1="731.5" x2="-365.837" y2="731.5" stroke="#005308"/>
<line x1="2109.13" y1="754.5" x2="-345.255" y2="754.5" stroke="#005308"/>
<line x1="2109.13" y1="775.5" x2="-345.255" y2="775.5" stroke="#005308"/>
<line x1="2109.13" y1="798.5" x2="-345.255" y2="798.5" stroke="#005308"/>
<line x1="2098.84" y1="821.5" x2="-355.546" y2="821.5" stroke="#005308"/>
<line x1="2098.84" y1="842.5" x2="-355.546" y2="842.5" stroke="#005308"/>
<line x1="2098.84" y1="865.5" x2="-355.546" y2="865.5" stroke="#005308"/>
<line x1="2078.25" y1="888.5" x2="-376.128" y2="888.5" stroke="#005308"/>
<line x1="2078.25" y1="909.5" x2="-376.128" y2="909.5" stroke="#005308"/>
<line x1="2078.25" y1="932.5" x2="-376.128" y2="932.5" stroke="#005308"/>
<line x1="2067.96" y1="955.5" x2="-386.419" y2="955.5" stroke="#005308"/>
</g>
</g>
</svg>
